<svg width="36" height="36" viewBox="0 0 36 36" fill="none" xmlns="http://www.w3.org/2000/svg">
<path fill-rule="evenodd" clip-rule="evenodd" d="M18.7955 30.0455C18.3562 30.4848 17.6438 30.4848 17.2045 30.0455L3.7045 16.5455C3.26517 16.1062 3.26517 15.3938 3.7045 14.9545C4.14384 14.5152 4.85616 14.5152 5.2955 14.9545L18 27.659L30.7045 14.9545C31.1438 14.5152 31.8562 14.5152 32.2955 14.9545C32.7348 15.3938 32.7348 16.1062 32.2955 16.5455L18.7955 30.0455Z" fill="#144889"/>
<path fill-rule="evenodd" clip-rule="evenodd" d="M18.7955 21.0455C18.3562 21.4848 17.6438 21.4848 17.2045 21.0455L3.7045 7.5455C3.26517 7.10616 3.26517 6.39384 3.7045 5.9545C4.14384 5.51516 4.85616 5.51516 5.2955 5.9545L18 18.659L30.7045 5.9545C31.1438 5.51516 31.8562 5.51516 32.2955 5.9545C32.7348 6.39384 32.7348 7.10616 32.2955 7.5455L18.7955 21.0455Z" fill="#C4213C"/>
</svg>
