<svg width="316" height="55" viewBox="0 0 316 55" fill="none" xmlns="http://www.w3.org/2000/svg">
<path d="M277.015 49.6503H272.669L275.104 40.1346C275.23 39.6725 275.293 39.2733 275.314 38.9582C275.314 38.5591 275.188 38.3071 274.936 38.181C274.663 38.055 274.117 38.013 273.299 38.013H271.598C271.052 38.013 270.611 38.034 270.296 38.076C269.96 38.118 269.708 38.223 269.52 38.3701C269.31 38.5381 269.163 38.7482 269.037 39.0423C268.932 39.3154 268.806 39.6935 268.701 40.1346L266.244 49.6503H261.898L264.586 38.9582C264.607 38.5591 264.481 38.3071 264.208 38.181C263.956 38.055 263.41 38.013 262.57 38.013H260.87C260.324 38.013 259.883 38.034 259.568 38.076C259.253 38.118 259.001 38.223 258.791 38.3701C258.602 38.5381 258.434 38.7482 258.329 39.0423C258.203 39.3154 258.098 39.6935 257.972 40.1346L255.537 49.6503H251.17L255.096 34.3159H259.463L259.001 36.2275C259.862 34.9461 260.975 34.3159 262.339 34.3159H265.153C266.706 34.3159 267.777 34.442 268.386 34.694C268.974 34.9671 269.31 35.4292 269.394 36.1224C269.667 35.5763 270.128 35.1352 270.842 34.7991C271.535 34.484 272.291 34.3159 273.068 34.3159H275.86C277.498 34.3159 278.631 34.463 279.261 34.7991C279.912 35.1141 280.206 35.7653 280.164 36.7316C280.143 37.1727 280.017 37.8239 279.786 38.6432L277.015 49.6503Z" fill="white"/>
<path d="M284.74 49.6503H280.373L284.299 34.2739H288.666L284.74 49.6503Z" fill="white"/>
<path d="M304.516 49.6503H299.267L297.419 45.008L293.304 49.6503H288.014L295.488 42.0882L291.961 34.2739H296.937L298.805 39.8195L303.487 34.2739H308.463L300.947 42.0882L304.516 49.6503Z" fill="white"/>
<path d="M257.047 4.65479L245.563 49.6497H231.727L223.812 22.4259L216.863 49.6497H202.943L189.947 4.65479H199.794L209.62 39.9449L218.479 4.65479H228.494L238.341 39.9449L247.201 4.65479H257.047Z" fill="white"/>
<path d="M285.684 20.8924H268.426L270.021 14.6116H280.099C280.393 13.4773 280.54 12.8681 280.54 12.7421C280.603 11.5448 279.658 10.9356 277.727 10.9356H271.827C271.008 10.9356 270.336 10.9776 269.791 11.0616C269.245 11.1246 268.804 11.3137 268.447 11.5658C268.09 11.8178 267.796 12.1959 267.544 12.6791C267.313 13.1622 267.082 13.8134 266.893 14.6116L265.298 20.8924C265.088 21.6907 264.983 22.3419 264.962 22.825C264.941 23.4972 265.151 23.9593 265.613 24.1694C266.053 24.4004 266.977 24.5055 268.384 24.5055H283.584L281.989 30.7233H263.954C262.505 30.7233 261.309 30.6602 260.343 30.5552C259.377 30.4292 258.642 30.1981 258.075 29.883C257.529 29.5679 257.152 29.1478 256.921 28.6437C256.711 28.1395 256.627 27.4883 256.648 26.6901C256.669 26.249 256.732 25.7448 256.837 25.1987C256.942 24.6525 257.089 24.0433 257.278 23.3712L260.133 12.0699C260.805 9.42315 261.959 7.5116 263.597 6.37728C265.235 5.22195 267.586 4.65479 270.651 4.65479H281.254C284.046 4.65479 285.957 4.92786 287.006 5.49503C288.077 6.06219 288.581 7.1545 288.497 8.75096C288.455 9.67522 288.266 10.7885 287.93 12.0699L285.684 20.8924Z" fill="white"/>
<path d="M297.148 30.7863H289.736L296.413 4.65479H303.824L297.148 30.7863Z" fill="white"/>
<path d="M309.325 30.7863H301.914L308.59 4.65479H316.002L309.325 30.7863Z" fill="white"/>
<rect x="169.895" width="5" height="54.3049" fill="#C4213C"/>
<path fill-rule="evenodd" clip-rule="evenodd" d="M77.82 34.0449C78.9904 20.4682 88.4577 19.4799 94.9339 4.65479C101.41 19.4799 110.903 20.4682 112.048 34.0449C113.816 54.852 76.0514 54.852 77.82 34.0449ZM97.7689 44.3444C90.2003 44.3444 84.0882 39.4027 84.0882 33.3166C84.0882 31.1319 84.8945 29.0772 86.2469 27.3606C83.4119 29.3893 81.6433 32.3543 81.6433 35.6314C81.6433 41.7175 87.7554 46.6592 95.298 46.6592C97.3527 46.6592 99.3034 46.2951 101.046 45.6449C103.413 44.7606 105.416 43.3301 106.794 41.5615C105.181 42.7319 103.205 43.5902 101.046 44.0323C99.9796 44.2404 98.8873 44.3444 97.7689 44.3444ZM101.852 20.9104C101.592 20.5723 101.306 20.2601 101.046 19.948C98.4711 16.931 96.4684 14.1741 95.3761 10.3247C94.6218 14.8503 97.7949 20.5723 100.448 23.6413C100.604 23.8234 100.812 24.0314 101.046 24.2915C102.945 26.3983 106.924 30.9758 107.132 37.5041C107.86 28.9211 106.404 26.1642 101.852 20.9104Z" fill="white"/>
<path d="M0 49.0515V6.03271H18.7524C24.1623 6.03271 28.4018 7.20312 31.4708 9.56993C34.5659 11.9107 36.1004 15.1098 36.1004 19.1932C36.1004 22.1583 35.2681 24.6031 33.5775 26.5017C31.913 28.4004 29.4161 29.7529 26.087 30.5331L36.4905 49.0515H23.0179L12.5103 27.178H15.2152C18.2063 27.178 20.417 26.5538 21.8735 25.2533C23.33 23.9789 24.0323 22.0542 24.0323 19.4533C24.0323 16.6964 23.304 14.6677 21.7955 13.3412C20.287 12.0408 17.9462 11.3645 14.7731 11.3645H11.73V49.0515H0ZM44.0591 49.0515V6.03271H71.0044V11.8327H56.1273V24.343H70.1981V30.143H56.1273V43.2515H71.7847V49.0515H44.0591Z" fill="white"/>
<path d="M119.641 49.052V5.25293H133.113L147.6 27.6466V5.25293H154.18V49.052H147.054L126.143 17.061V49.052H119.641Z" fill="white"/>
</svg>
