<svg width="16" height="16" viewBox="0 0 16 16" fill="none" xmlns="http://www.w3.org/2000/svg">
<path fill-rule="evenodd" clip-rule="evenodd" d="M7.05882 0.435489C7.64706 0.121764 8.35294 0.121764 8.94118 0.435489L14.9412 3.63549C15.5929 3.98308 16 4.66157 16 5.4002V5.7137L9.29147 9.64569L8.24282 9.06311L8 8.92821L7.75718 9.06311L6.70853 9.64569L0 5.7137V5.4002C0 4.66157 0.407097 3.98308 1.05882 3.63549L7.05882 0.435489ZM0 6.87281V13.3727L5.69326 10.2097L0 6.87281ZM10.3067 10.2097L16 13.3727V6.87281L10.3067 10.2097ZM8 10.0722L15.9411 14.4839C15.7248 15.3548 14.9378 16.0002 14 16.0002H2C1.06222 16.0002 0.27519 15.3548 0.0588878 14.4839L8 10.0722Z" fill="white"/>
</svg>
