<svg width="413" height="70" viewBox="0 0 413 70" fill="none" xmlns="http://www.w3.org/2000/svg">
<path d="M362.231 63.9997H356.628L359.768 51.7338C359.93 51.1381 360.011 50.6236 360.038 50.2175C360.038 49.703 359.876 49.3781 359.551 49.2156C359.199 49.0531 358.496 48.999 357.44 48.999H355.248C354.545 48.999 353.976 49.0261 353.57 49.0802C353.137 49.1344 352.813 49.2698 352.569 49.4593C352.298 49.6759 352.109 49.9467 351.947 50.3258C351.811 50.6778 351.649 51.1652 351.514 51.7338L348.347 63.9997H342.745L346.209 50.2175C346.236 49.703 346.074 49.3781 345.722 49.2156C345.397 49.0531 344.694 48.999 343.611 48.999H341.419C340.715 48.999 340.147 49.0261 339.741 49.0802C339.335 49.1344 339.01 49.2698 338.74 49.4593C338.496 49.6759 338.28 49.9467 338.144 50.3258C337.982 50.6778 337.847 51.1652 337.684 51.7338L334.545 63.9997H328.916L333.977 44.2334H339.606L339.01 46.6974C340.12 45.0457 341.554 44.2334 343.314 44.2334H346.94C348.943 44.2334 350.323 44.3959 351.108 44.7208C351.865 45.0728 352.298 45.6685 352.407 46.562C352.758 45.858 353.354 45.2894 354.274 44.8562C355.167 44.45 356.141 44.2334 357.143 44.2334H360.742C362.853 44.2334 364.314 44.4229 365.126 44.8562C365.965 45.2623 366.344 46.1017 366.29 47.3473C366.263 47.9159 366.101 48.7553 365.803 49.8113L362.231 63.9997Z" fill="#C4213C"/>
<path d="M372.19 64.0002H366.561L371.621 44.1797H377.25L372.19 64.0002Z" fill="#C4213C"/>
<path d="M397.682 64.0002H390.916L388.534 58.0161L383.23 64.0002H376.41L386.045 54.2524L381.498 44.1797H387.912L390.321 51.3281L396.356 44.1797H402.769L393.081 54.2524L397.682 64.0002Z" fill="#C4213C"/>
<path d="M336.493 6L321.69 63.9993H303.855L293.653 28.9073L284.695 63.9993H266.752L250 6H262.693L275.358 51.4896L286.779 6H299.688L312.38 51.4896L323.801 6H336.493Z" fill="#ffffff"/>
<path d="M373.407 26.9306H351.161L353.218 18.8346H366.208C366.587 17.3724 366.776 16.5872 366.776 16.4247C366.857 14.8813 365.64 14.0961 363.15 14.0961H355.545C354.49 14.0961 353.624 14.1502 352.92 14.2585C352.216 14.3398 351.648 14.5835 351.188 14.9084C350.728 15.2333 350.349 15.7207 350.024 16.3435C349.727 16.9663 349.429 17.8056 349.185 18.8346L347.129 26.9306C346.858 27.9596 346.723 28.799 346.696 29.4217C346.669 30.2882 346.939 30.8839 347.535 31.1547C348.103 31.4525 349.294 31.5879 351.107 31.5879H370.7L368.644 39.6028H345.397C343.529 39.6028 341.987 39.5215 340.742 39.3861C339.497 39.2237 338.55 38.9258 337.819 38.5197C337.115 38.1135 336.628 37.572 336.33 36.9221C336.06 36.2723 335.952 35.4329 335.979 34.4039C336.006 33.8353 336.087 33.1855 336.222 32.4815C336.358 31.7775 336.547 30.9922 336.791 30.1257L340.471 15.5582C341.337 12.1465 342.826 9.68249 344.936 8.22033C347.047 6.73108 350.078 6 354.03 6H367.696C371.296 6 373.759 6.352 375.112 7.08309C376.492 7.81417 377.141 9.22218 377.033 11.28C376.979 12.4714 376.735 13.9065 376.302 15.5582L373.407 26.9306Z" fill="#ffffff"/>
<path d="M388.182 39.684H378.629L387.235 6H396.788L388.182 39.684Z" fill="#ffffff"/>
<path d="M403.879 39.684H394.326L402.932 6H412.485L403.879 39.684Z" fill="#ffffff"/>
<rect x="219" width="10" height="70" fill="#C4213C"/>
<path fill-rule="evenodd" clip-rule="evenodd" d="M100.31 43.8844C101.819 26.3838 114.022 25.1098 122.37 6C130.718 25.1098 142.955 26.3838 144.43 43.8844C146.71 70.7052 98.0303 70.7052 100.31 43.8844ZM126.025 57.1607C116.268 57.1607 108.39 50.7907 108.39 42.9457C108.39 40.1295 109.429 37.4809 111.173 35.2682C107.518 37.8832 105.238 41.7052 105.238 45.9295C105.238 53.7746 113.117 60.1445 122.84 60.1445C125.488 60.1445 128.003 59.6751 130.249 58.837C133.3 57.6971 135.881 55.8532 137.658 53.5734C135.579 55.0821 133.031 56.1884 130.249 56.7584C128.874 57.0266 127.466 57.1607 126.025 57.1607ZM131.288 26.9538C130.953 26.5179 130.584 26.1156 130.249 25.7133C126.93 21.8243 124.348 18.2705 122.94 13.3087C121.968 19.1422 126.058 26.5179 129.478 30.474C129.679 30.7087 129.947 30.9769 130.249 31.3121C132.696 34.0277 137.826 39.9283 138.094 48.3434C139.033 37.2798 137.155 33.726 131.288 26.9538Z" fill="#ffffff"/>
<path d="M0 63.2284V7.77637H24.1723C31.1457 7.77637 36.6104 9.28504 40.5665 12.3359C44.5561 15.3532 46.5341 19.4769 46.5341 24.7405C46.5341 28.5625 45.4613 31.7139 43.2821 34.1613C41.1364 36.6087 37.9179 38.3521 33.6266 39.3579L47.037 63.2284H29.6705L16.126 35.033H19.6127C23.4682 35.033 26.3179 34.2284 28.1954 32.5521C30.0728 30.9093 30.978 28.4284 30.978 25.0758C30.978 21.522 30.0393 18.907 28.0948 17.1972C26.1503 15.5209 23.1329 14.6492 19.0428 14.6492H15.1202V63.2284H0ZM56.7931 63.2284V7.77637H91.526V15.2527H72.3491V31.3787H90.4867V38.855H72.3491V55.7521H92.5318V63.2284H56.7931Z" fill="#ffffff"/>
<path d="M154.219 63.2293V6.77148H171.585L190.259 35.6374V6.77148H198.741V63.2293H189.555L162.6 21.9923V63.2293H154.219Z" fill="#ffffff"/>
</svg>
