<svg width="160" height="210" viewBox="0 0 160 210" fill="none" xmlns="http://www.w3.org/2000/svg">
<path fill-rule="evenodd" clip-rule="evenodd" d="M0.280689 136.904C5.73262 73.6616 49.8327 69.0578 80 0C110.167 69.0578 154.389 73.6616 159.719 136.904C167.958 233.827 -7.95778 233.827 0.280689 136.904ZM93.2058 184.881C57.95 184.881 29.4788 161.862 29.4788 133.512C29.4788 123.335 33.2346 113.764 39.5346 105.767C26.3288 115.217 18.0903 129.029 18.0903 144.294C18.0903 172.644 46.5615 195.664 81.6962 195.664C91.2673 195.664 100.354 193.968 108.471 190.939C119.496 186.819 128.825 180.156 135.246 171.917C127.735 177.369 118.527 181.368 108.471 183.427C103.504 184.396 98.4154 184.881 93.2058 184.881ZM112.227 75.7212C111.015 74.1462 109.683 72.6924 108.471 71.2385C96.4769 57.1847 87.1481 44.3424 82.0596 26.4116C78.5462 47.4924 93.3269 74.1462 105.685 88.4424C106.412 89.2905 107.381 90.2597 108.471 91.4712C117.315 101.285 135.852 122.608 136.821 153.017C140.214 113.037 133.429 100.194 112.227 75.7212Z" fill="white"/>
</svg>
