<svg width="397" height="70" viewBox="0 0 397 70" fill="none" xmlns="http://www.w3.org/2000/svg">
<path d="M346.231 63.9997H340.628L343.768 51.7338C343.93 51.1381 344.011 50.6236 344.038 50.2175C344.038 49.703 343.876 49.3781 343.551 49.2156C343.199 49.0531 342.496 48.999 341.44 48.999H339.248C338.545 48.999 337.976 49.0261 337.57 49.0802C337.137 49.1344 336.813 49.2698 336.569 49.4593C336.298 49.6759 336.109 49.9467 335.947 50.3258C335.811 50.6778 335.649 51.1652 335.514 51.7338L332.347 63.9997H326.745L330.209 50.2175C330.236 49.703 330.074 49.3781 329.722 49.2156C329.397 49.0531 328.694 48.999 327.611 48.999H325.419C324.715 48.999 324.147 49.0261 323.741 49.0802C323.335 49.1344 323.01 49.2698 322.74 49.4593C322.496 49.6759 322.28 49.9467 322.144 50.3258C321.982 50.6778 321.847 51.1652 321.684 51.7338L318.545 63.9997H312.916L317.977 44.2334H323.606L323.01 46.6974C324.12 45.0457 325.554 44.2334 327.314 44.2334H330.94C332.943 44.2334 334.323 44.3959 335.108 44.7208C335.865 45.0728 336.298 45.6685 336.407 46.562C336.758 45.858 337.354 45.2894 338.274 44.8562C339.167 44.45 340.141 44.2334 341.143 44.2334H344.742C346.853 44.2334 348.314 44.4229 349.126 44.8562C349.965 45.2623 350.344 46.1017 350.29 47.3473C350.263 47.9159 350.101 48.7553 349.803 49.8113L346.231 63.9997Z" fill="#615E5C"/>
<path d="M356.19 64.0002H350.561L355.621 44.1797H361.25L356.19 64.0002Z" fill="#615E5C"/>
<path d="M381.682 64.0002H374.916L372.534 58.0161L367.23 64.0002H360.41L370.045 54.2524L365.498 44.1797H371.912L374.321 51.3281L380.356 44.1797H386.769L377.081 54.2524L381.682 64.0002Z" fill="#615E5C"/>
<path d="M320.493 6L305.69 63.9993H287.855L277.653 28.9073L268.695 63.9993H250.752L234 6H246.693L259.358 51.4896L270.779 6H283.688L296.38 51.4896L307.801 6H320.493Z" fill="#144889"/>
<path d="M357.407 26.9306H335.161L337.218 18.8346H350.208C350.587 17.3724 350.776 16.5872 350.776 16.4247C350.857 14.8813 349.64 14.0961 347.15 14.0961H339.545C338.49 14.0961 337.624 14.1502 336.92 14.2585C336.216 14.3398 335.648 14.5835 335.188 14.9084C334.728 15.2333 334.349 15.7207 334.024 16.3435C333.727 16.9663 333.429 17.8056 333.185 18.8346L331.129 26.9306C330.858 27.9596 330.723 28.799 330.696 29.4217C330.669 30.2882 330.939 30.8839 331.535 31.1547C332.103 31.4525 333.294 31.5879 335.107 31.5879H354.7L352.644 39.6028H329.397C327.529 39.6028 325.987 39.5215 324.742 39.3861C323.497 39.2237 322.55 38.9258 321.819 38.5197C321.115 38.1135 320.628 37.572 320.33 36.9221C320.06 36.2723 319.952 35.4329 319.979 34.4039C320.006 33.8353 320.087 33.1855 320.222 32.4815C320.358 31.7775 320.547 30.9922 320.791 30.1257L324.471 15.5582C325.337 12.1465 326.826 9.68249 328.936 8.22033C331.047 6.73108 334.078 6 338.03 6H351.696C355.296 6 357.759 6.352 359.112 7.08309C360.492 7.81417 361.141 9.22218 361.033 11.28C360.979 12.4714 360.735 13.9065 360.302 15.5582L357.407 26.9306Z" fill="#144889"/>
<path d="M372.182 39.684H362.629L371.235 6H380.788L372.182 39.684Z" fill="#144889"/>
<path d="M387.879 39.684H378.326L386.932 6H396.485L387.879 39.684Z" fill="#144889"/>
<rect x="214" width="5" height="70" fill="#C4213C"/>
<path fill-rule="evenodd" clip-rule="evenodd" d="M100.31 43.8844C101.819 26.3838 114.022 25.1098 122.37 6C130.718 25.1098 142.955 26.3838 144.43 43.8844C146.71 70.7052 98.0303 70.7052 100.31 43.8844ZM126.025 57.1607C116.268 57.1607 108.39 50.7907 108.39 42.9457C108.39 40.1295 109.429 37.4809 111.173 35.2682C107.518 37.8832 105.238 41.7052 105.238 45.9295C105.238 53.7746 113.117 60.1445 122.84 60.1445C125.488 60.1445 128.003 59.6751 130.249 58.837C133.3 57.6971 135.881 55.8532 137.658 53.5734C135.579 55.0821 133.031 56.1884 130.249 56.7584C128.874 57.0266 127.466 57.1607 126.025 57.1607ZM131.288 26.9538C130.953 26.5179 130.584 26.1156 130.249 25.7133C126.93 21.8243 124.348 18.2705 122.94 13.3087C121.968 19.1422 126.058 26.5179 129.478 30.474C129.679 30.7087 129.947 30.9769 130.249 31.3121C132.696 34.0277 137.826 39.9283 138.094 48.3434C139.033 37.2798 137.155 33.726 131.288 26.9538Z" fill="#144889"/>
<path d="M0 63.2284V7.77637H24.1723C31.1457 7.77637 36.6104 9.28504 40.5665 12.3359C44.5561 15.3532 46.5341 19.4769 46.5341 24.7405C46.5341 28.5625 45.4613 31.7139 43.2821 34.1613C41.1364 36.6087 37.9179 38.3521 33.6266 39.3579L47.037 63.2284H29.6705L16.126 35.033H19.6127C23.4682 35.033 26.3179 34.2284 28.1954 32.5521C30.0728 30.9093 30.978 28.4284 30.978 25.0758C30.978 21.522 30.0393 18.907 28.0948 17.1972C26.1503 15.5209 23.1329 14.6492 19.0428 14.6492H15.1202V63.2284H0ZM56.7931 63.2284V7.77637H91.526V15.2527H72.3491V31.3787H90.4867V38.855H72.3491V55.7521H92.5318V63.2284H56.7931Z" fill="#144889"/>
<path d="M154.219 63.2293V6.77148H171.585L190.259 35.6374V6.77148H198.741V63.2293H189.555L162.6 21.9923V63.2293H154.219Z" fill="#144889"/>
</svg>
